<svg xmlns="http://www.w3.org/2000/svg" aria-hidden="true" style="position:absolute;width:0;height:0;overflow:hidden">
  <defs>
    <symbol id="arrow_stroke" viewBox="0 0 64 32">
      <path d="M44.444.604 64 16 44.444 31.396V18.667H0v-5.333h44.444V.605z" />
    </symbol>
  </defs>
</svg>
<svg xmlns="http://www.w3.org/2000/svg" aria-hidden="true" style="position:absolute;width:0;height:0;overflow:hidden">
  <defs>
    <symbol id="close-icon" viewBox="0 0 32 32">
      <path stroke-linecap="round" stroke-linejoin="round" stroke-width="2.08" d="M24 8 8 24M8 8l16 16" />
    </symbol>
  </defs>
</svg>
<symbol id="icon-icon-close" viewBox="0 0 32 32">
  <path fill="none" stroke="#f6f5ef" stroke-linecap="round" stroke-linejoin="round" stroke-width="2.08"
    d="M24 8 8 24M8 8l16 16" style="stroke:var(--color1, #f6f5ef)" />
</symbol>
<symbol id="icon-close2" viewBox="0 0 32 32">
  <path fill="none" stroke="#f6f5ef" stroke-linecap="round" stroke-linejoin="round" stroke-width="2.08"
    d="M24 8 8 24M8 8l16 16" style="stroke:var(--color1, #f6f5ef)" />
</symbol>

<symbol id="icon-x-icon" viewBox="0 0 32 32">
  <path stroke-linecap="round" stroke-linejoin="round" stroke-width="2.08" d="M24 8 8 24M8 8l16 16" />
  <svg aria-hidden="true" style="position: absolute; width: 0; height: 0; overflow: hidden;" version="1.1"
    xmlns="http://www.w3.org/2000/svg" xmlns:xlink="http://www.w3.org/1999/xlink">
    <defs>
      <symbol id="icon-cross" viewBox="0 0 32 32">
        <path
          d="M31.708 25.708c-0-0-0-0-0-0l-9.708-9.708 9.708-9.708c0-0 0-0 0-0 0.105-0.105 0.18-0.227 0.229-0.357 0.133-0.356 0.057-0.771-0.229-1.057l-4.586-4.586c-0.286-0.286-0.702-0.361-1.057-0.229-0.13 0.048-0.252 0.124-0.357 0.228 0 0-0 0-0 0l-9.708 9.708-9.708-9.708c-0-0-0-0-0-0-0.105-0.104-0.227-0.18-0.357-0.228-0.356-0.133-0.771-0.057-1.057 0.229l-4.586 4.586c-0.286 0.286-0.361 0.702-0.229 1.057 0.049 0.13 0.124 0.252 0.229 0.357 0 0 0 0 0 0l9.708 9.708-9.708 9.708c-0 0-0 0-0 0-0.104 0.105-0.18 0.227-0.229 0.357-0.133 0.355-0.057 0.771 0.229 1.057l4.586 4.586c0.286 0.286 0.702 0.361 1.057 0.229 0.13-0.049 0.252-0.124 0.357-0.229 0-0 0-0 0-0l9.708-9.708 9.708 9.708c0 0 0 0 0 0 0.105 0.105 0.227 0.18 0.357 0.229 0.356 0.133 0.771 0.057 1.057-0.229l4.586-4.586c0.286-0.286 0.362-0.702 0.229-1.057-0.049-0.13-0.124-0.252-0.229-0.357z">
        </path>
      </symbol>
    </defs>
  </svg>

  <svg xmlns="http://www.w3.org/2000/svg" width="20" height="20" viewBox="0 0 20 20" fill="none">
    <path d="M15 5L5 15" stroke="#F6F5EF" stroke-width="1.3" stroke-linecap="round" stroke-linejoin="round" />
    <path d="M5 5L15 15" stroke="#F6F5EF" stroke-width="1.3" stroke-linecap="round" stroke-linejoin="round" />
  </svg>

  <svg aria-hidden="true" style="position: absolute; width: 0; height: 0; overflow: hidden;" version="1.1"
    xmlns="http://www.w3.org/2000/svg" xmlns:xlink="http://www.w3.org/1999/xlink">
    <defs>
      <symbol id="icon-x-3" viewBox="0 0 32 32">
        <path fill="#FFFFFF" stroke="#f6f5ef" style="stroke: var(--color1, #f6f5ef)" stroke-linejoin="round"
          stroke-linecap="round" stroke-miterlimit="4" stroke-width="2.0800" d="M24 8l-16 16"></path>
        <path fill="#FFFFFF" stroke="#f6f5ef" style="stroke: var(--color1, #f6f5ef)" stroke-linejoin="round"
          stroke-linecap="round" stroke-miterlimit="4" stroke-width="2.0800" d="M8 8l16 16"></path>
      </symbol>
      <symbol id="icon-cross" viewBox="0 0 32 32">
        <path
          d="M31.708 25.708c-0-0-0-0-0-0l-9.708-9.708 9.708-9.708c0-0 0-0 0-0 0.105-0.105 0.18-0.227 0.229-0.357 0.133-0.356 0.057-0.771-0.229-1.057l-4.586-4.586c-0.286-0.286-0.702-0.361-1.057-0.229-0.13 0.048-0.252 0.124-0.357 0.228 0 0-0 0-0 0l-9.708 9.708-9.708-9.708c-0-0-0-0-0-0-0.105-0.104-0.227-0.18-0.357-0.228-0.356-0.133-0.771-0.057-1.057 0.229l-4.586 4.586c-0.286 0.286-0.361 0.702-0.229 1.057 0.049 0.13 0.124 0.252 0.229 0.357 0 0 0 0 0 0l9.708 9.708-9.708 9.708c-0 0-0 0-0 0-0.104 0.105-0.18 0.227-0.229 0.357-0.133 0.355-0.057 0.771 0.229 1.057l4.586 4.586c0.286 0.286 0.702 0.361 1.057 0.229 0.13-0.049 0.252-0.124 0.357-0.229 0-0 0-0 0-0l9.708-9.708 9.708 9.708c0 0 0 0 0 0 0.105 0.105 0.227 0.18 0.357 0.229 0.356 0.133 0.771 0.057 1.057-0.229l4.586-4.586c0.286-0.286 0.362-0.702 0.229-1.057-0.049-0.13-0.124-0.252-0.229-0.357z">
        </path>
      </symbol>
    </defs>
  </svg>